<svg xmlns="http://www.w3.org/2000/svg" viewBox="0 0 297.04 89.07"><defs><style>.cls-1,.cls-4{fill:#8adac2;}.cls-2,.cls-6{fill:#457c6a;}.cls-3{fill:#b9e5d7;}.cls-3,.cls-4,.cls-5,.cls-6{fill-rule:evenodd;}.cls-5{fill:#64b296;}</style></defs><title>logo</title><g id="Слой_2" data-name="Слой 2"><g id="Layer_1" data-name="Layer 1"><path class="cls-1" d="M182.91,71.37a4.49,4.49,0,0,0-2.14-1.9,8.36,8.36,0,0,0-3.38-.61h-7.92A1,1,0,0,0,169,69a1,1,0,0,0-.34.35,1,1,0,0,0-.13.5V82.77a1,1,0,0,0,.13.49,1,1,0,0,0,.35.35,1,1,0,0,0,.49.13h2a1,1,0,0,0,1-1V80.43h5a8.3,8.3,0,0,0,3.38-.61,4.45,4.45,0,0,0,2.14-1.9,7.57,7.57,0,0,0,0-6.56Zm-3.42,4.75a2,2,0,0,1-.74.87,3,3,0,0,1-1.12.41,8.05,8.05,0,0,1-1.42.11h-3.78V71.79h3.78a8.42,8.42,0,0,1,1.42.1,3,3,0,0,1,1.12.41,2,2,0,0,1,.74.87,4.22,4.22,0,0,1,0,2.94Z"/><path class="cls-1" d="M152.68,68.86a1,1,0,0,0-.5.13,1,1,0,0,0-.35.35,1,1,0,0,0-.13.5v1a1,1,0,0,0,.13.5,1,1,0,0,0,.35.35,1,1,0,0,0,.5.13h4.63v11a.93.93,0,0,0,.13.48,1,1,0,0,0,.35.34,1,1,0,0,0,.49.13h2a1,1,0,0,0,.49-.13,1,1,0,0,0,.35-.34.93.93,0,0,0,.13-.48v-11h4.63a1,1,0,0,0,.5-.13,1,1,0,0,0,.35-.35,1,1,0,0,0,.13-.5v-1a1,1,0,0,0-.13-.5,1,1,0,0,0-.35-.35,1,1,0,0,0-.5-.13Z"/><path class="cls-1" d="M146.1,82.79a.94.94,0,0,0,.49.82,1,1,0,0,0,.49.13H149a1,1,0,0,0,.51-.13,1,1,0,0,0,.36-.35,1,1,0,0,0,.13-.49V69.84a1,1,0,0,0-.49-.85,1,1,0,0,0-.51-.13h-1.93a1,1,0,0,0-.84.48,1,1,0,0,0-.13.5v4.69H139V69.84a1,1,0,0,0-.13-.5,1,1,0,0,0-.35-.35,1,1,0,0,0-.49-.13h-1.93a1,1,0,0,0-.5.13,1,1,0,0,0-.5.85V82.77a.92.92,0,0,0,.14.49,1,1,0,0,0,.36.35,1,1,0,0,0,.5.13H138a1,1,0,0,0,.84-.47,1,1,0,0,0,.13-.48V77.46h7.13Z"/><path class="cls-1" d="M132.18,68.86h-12a1,1,0,0,0-1,1V82.74a1,1,0,0,0,.13.5,1,1,0,0,0,.85.5h11.91a1,1,0,0,0,1-1v-1a1,1,0,0,0-1-1h-9V77.76h7.77a1,1,0,0,0,.49-.13,1,1,0,0,0,.35-.35,1,1,0,0,0,.13-.49v-1a1,1,0,0,0-.13-.49,1,1,0,0,0-.35-.35,1,1,0,0,0-.49-.13h-7.77v-3h9a1,1,0,0,0,1-1v-1a1,1,0,0,0-.49-.85A1,1,0,0,0,132.18,68.86Z"/><path class="cls-1" d="M116.79,83.74a1,1,0,0,0,.49-.13,1,1,0,0,0,.35-.35,1,1,0,0,0,.13-.49v-1a1,1,0,0,0-1-1h-1.12v-11a1,1,0,0,0-.13-.5,1,1,0,0,0-.35-.35,1,1,0,0,0-.49-.13h-2a1,1,0,0,0-.49.13.94.94,0,0,0-.49.82v11h-7v-11a1,1,0,0,0-.13-.5,1,1,0,0,0-.35-.35,1,1,0,0,0-.49-.13h-2a1,1,0,0,0-.49.13,1,1,0,0,0-.35.34,1,1,0,0,0-.13.49V82.77a1,1,0,0,0,.13.49,1,1,0,0,0,.35.35,1,1,0,0,0,.49.13Z"/><path class="cls-1" d="M296.06,63a1,1,0,0,0,.49-.13,1,1,0,0,0,.35-.35A1,1,0,0,0,297,62V49.14a1,1,0,0,0-.47-.84.91.91,0,0,0-.48-.13H293a1.25,1.25,0,0,0-.53.14,2.23,2.23,0,0,0-.51.36,2.15,2.15,0,0,0-.39.48L285.7,59.5V49.12a.94.94,0,0,0-.13-.48,1,1,0,0,0-.35-.34,1,1,0,0,0-.49-.13H282.9a1,1,0,0,0-.5.13,1,1,0,0,0-.35.35,1,1,0,0,0-.13.5V62a1,1,0,0,0,.13.49,1,1,0,0,0,.35.35,1,1,0,0,0,.5.13h3.44a1.41,1.41,0,0,0,.57-.13,2.12,2.12,0,0,0,.54-.35,1.87,1.87,0,0,0,.4-.49l5.41-9.62V62a1,1,0,0,0,.49.84,1,1,0,0,0,.49.13Z"/><path class="cls-1" d="M289.48,44.66a1.71,1.71,0,0,1-.87-.2,1.09,1.09,0,0,1-.47-.55.9.9,0,0,0-.28-.39.73.73,0,0,0-.44-.15h-.85a.63.63,0,0,0-.42.12.51.51,0,0,0-.15.41,3.07,3.07,0,0,0,.44,1.65,2.82,2.82,0,0,0,1.22,1.06,4.64,4.64,0,0,0,3.65,0,2.81,2.81,0,0,0,1.21-1.06,3.07,3.07,0,0,0,.44-1.65.5.5,0,0,0-.15-.41.62.62,0,0,0-.42-.12h-.85a.71.71,0,0,0-.44.15.88.88,0,0,0-.28.39,1.09,1.09,0,0,1-.47.55A1.71,1.71,0,0,1,289.48,44.66Z"/><path class="cls-1" d="M278,63a1,1,0,0,0,.49-.13,1,1,0,0,0,.35-.35A1,1,0,0,0,279,62V49.12a1,1,0,0,0-.47-.84.94.94,0,0,0-.48-.13h-3.06a1.2,1.2,0,0,0-.53.14,2,2,0,0,0-.51.36,2.06,2.06,0,0,0-.39.48l-5.9,10.38V49.1a1,1,0,0,0-.13-.48,1,1,0,0,0-.35-.34,1,1,0,0,0-.49-.13h-1.83a1,1,0,0,0-.5.13,1,1,0,0,0-.35.35,1,1,0,0,0-.13.5V62a1,1,0,0,0,.13.49,1,1,0,0,0,.35.35,1,1,0,0,0,.5.13h3.44a1.41,1.41,0,0,0,.57-.13,2.12,2.12,0,0,0,.54-.35,2,2,0,0,0,.4-.49l5.41-9.63V62a1,1,0,0,0,.13.49,1,1,0,0,0,.35.35,1,1,0,0,0,.49.13Z"/><path class="cls-1" d="M249.89,63a1,1,0,0,0,.84-.47,1,1,0,0,0,.13-.49V57h2.23a2.52,2.52,0,0,1,1.17.27,3.21,3.21,0,0,1,.93.74,8.07,8.07,0,0,1,.81,1.11L257.83,62a2.11,2.11,0,0,0,.45.5,2.39,2.39,0,0,0,.57.35,1.55,1.55,0,0,0,.57.13h2.38a.61.61,0,0,0,.41-.13.42.42,0,0,0,.13-.35,1.08,1.08,0,0,0-.18-.5l-2.59-4.12a8.94,8.94,0,0,0-.53-.73,7.54,7.54,0,0,0-.65-.74,4.63,4.63,0,0,0-.73-.61,2.26,2.26,0,0,0-.76-.34,3.46,3.46,0,0,0,1.22-.53,4,4,0,0,0,.85-.81,7.3,7.3,0,0,0,.61-.94l2.25-4.08a1,1,0,0,0,.16-.71c-.05-.18-.21-.28-.48-.28h-2.4a1.5,1.5,0,0,0-.8.24,2.07,2.07,0,0,0-.69.75L256,52a5.88,5.88,0,0,1-.85,1.21,2.91,2.91,0,0,1-.95.68,2.77,2.77,0,0,1-1.11.22h-2.23v-5a1,1,0,0,0-.49-.86,1,1,0,0,0-.49-.13h-2a1,1,0,0,0-.49.13,1,1,0,0,0-.35.36,1,1,0,0,0-.13.51V62a1,1,0,0,0,.13.5,1,1,0,0,0,.35.36.92.92,0,0,0,.49.14Z"/><path class="cls-1" d="M228.77,55.59a9.22,9.22,0,0,0,.86,4.24,5.43,5.43,0,0,0,2.58,2.47,9.88,9.88,0,0,0,4.25.8H239a8.42,8.42,0,0,0,1.73-.18,7.15,7.15,0,0,0,1.62-.56,5.38,5.38,0,0,0,1.35-.92,4.09,4.09,0,0,0,.92-1.28,3.92,3.92,0,0,0,.34-1.63,1.27,1.27,0,0,0-.13-.58,1,1,0,0,0-.3-.35,1.09,1.09,0,0,0-.35-.17,1.11,1.11,0,0,0-.28,0h-1.23a1.4,1.4,0,0,0-.56.1,1.36,1.36,0,0,0-.5.36,2.75,2.75,0,0,0-.43.68,2.85,2.85,0,0,1-1,1.19,2.74,2.74,0,0,1-1.57.44h-2.06a6.41,6.41,0,0,1-1.9-.23,2.42,2.42,0,0,1-1.19-.76,3.2,3.2,0,0,1-.62-1.42,13.45,13.45,0,0,1,0-4.35,3.2,3.2,0,0,1,.62-1.42,2.42,2.42,0,0,1,1.19-.76,6.42,6.42,0,0,1,1.9-.23h1.85a2.71,2.71,0,0,1,1.57.44,2.86,2.86,0,0,1,1,1.19,2.73,2.73,0,0,0,.43.68,1.42,1.42,0,0,0,.5.36,1.47,1.47,0,0,0,.56.1h1.23a1.12,1.12,0,0,0,.28,0,1.19,1.19,0,0,0,.35-.17,1,1,0,0,0,.3-.35,1.25,1.25,0,0,0,.13-.58,3.91,3.91,0,0,0-.34-1.63,4,4,0,0,0-.92-1.28,5.4,5.4,0,0,0-1.35-.92,7.15,7.15,0,0,0-1.62-.55,8.14,8.14,0,0,0-1.73-.18h-2.31a9.87,9.87,0,0,0-4.25.8,5.42,5.42,0,0,0-2.58,2.47A9.22,9.22,0,0,0,228.77,55.59Z"/><path class="cls-1" d="M222.74,62.07a1,1,0,0,0,1,1h1.93a1,1,0,0,0,.51-.13,1,1,0,0,0,.36-.35,1,1,0,0,0,.13-.49V49.12a1,1,0,0,0-.49-.85,1,1,0,0,0-.51-.13h-1.93a1,1,0,0,0-.84.48,1,1,0,0,0-.13.5v4.69h-7.13V49.12a1,1,0,0,0-.13-.5,1,1,0,0,0-.84-.48H212.7a1,1,0,0,0-.5.13,1,1,0,0,0-.5.85V62a.92.92,0,0,0,.14.49,1,1,0,0,0,.36.35,1,1,0,0,0,.5.13h1.93a1,1,0,0,0,.84-.47,1,1,0,0,0,.13-.49V56.74h7.13Z"/><path class="cls-1" d="M207.75,63a1,1,0,0,0,.49-.13,1,1,0,0,0,.35-.35,1,1,0,0,0,.13-.49V49.12a1,1,0,0,0-.47-.84.94.94,0,0,0-.48-.13h-3.06a1.2,1.2,0,0,0-.53.14,2,2,0,0,0-.51.36,2.06,2.06,0,0,0-.39.48l-5.9,10.38V49.1a1,1,0,0,0-.13-.48,1,1,0,0,0-.35-.34,1,1,0,0,0-.49-.13h-1.83a1,1,0,0,0-.5.13,1,1,0,0,0-.35.35,1,1,0,0,0-.13.5V62a1,1,0,0,0,.13.49,1,1,0,0,0,.35.35,1,1,0,0,0,.5.13H198a1.41,1.41,0,0,0,.57-.13,2.12,2.12,0,0,0,.54-.35,2,2,0,0,0,.4-.49l5.41-9.63V62a1,1,0,0,0,.13.49,1,1,0,0,0,.35.35,1,1,0,0,0,.49.13Z"/><path class="cls-1" d="M191.15,63a1,1,0,0,0,.49-.13,1,1,0,0,0,.35-.35,1,1,0,0,0,.13-.49v-1a1,1,0,0,0-1-1H190v-11a1,1,0,0,0-.13-.5,1,1,0,0,0-.35-.35,1,1,0,0,0-.49-.13h-2a1,1,0,0,0-.49.13.94.94,0,0,0-.49.82v11h-7v-11a1,1,0,0,0-.13-.5,1,1,0,0,0-.35-.35,1,1,0,0,0-.49-.13h-2a1,1,0,0,0-.49.13,1,1,0,0,0-.35.34,1,1,0,0,0-.13.48V62a1,1,0,0,0,.13.49,1,1,0,0,0,.35.35,1,1,0,0,0,.49.13Z"/><path class="cls-1" d="M171.3,63a1,1,0,0,0,.49-.13,1,1,0,0,0,.35-.35,1,1,0,0,0,.13-.49V49.12a1,1,0,0,0-.47-.84.94.94,0,0,0-.48-.13h-3.06a1.2,1.2,0,0,0-.53.14,2,2,0,0,0-.51.36,2.06,2.06,0,0,0-.39.48l-5.9,10.38V49.1a1,1,0,0,0-.13-.48,1,1,0,0,0-.35-.34,1,1,0,0,0-.49-.13h-1.83a1,1,0,0,0-.5.13,1,1,0,0,0-.35.35,1,1,0,0,0-.13.5V62a1,1,0,0,0,.13.49,1,1,0,0,0,.35.35,1,1,0,0,0,.5.13h3.44a1.41,1.41,0,0,0,.57-.13,2.12,2.12,0,0,0,.54-.35,2,2,0,0,0,.4-.49l5.41-9.63V62a1,1,0,0,0,.13.49,1,1,0,0,0,.35.35,1,1,0,0,0,.49.13Z"/><path class="cls-1" d="M154.06,48.61a1,1,0,0,0-.35-.34,1,1,0,0,0-.49-.13h-5.6a13.32,13.32,0,0,0-2.21.17,7.24,7.24,0,0,0-2,.63,4.68,4.68,0,0,0-1.57,1.25,5.15,5.15,0,0,0-1,2L139,60.09h-.81a1,1,0,0,0-.84.47,1,1,0,0,0-.13.48v1a1,1,0,0,0,.49.84,1,1,0,0,0,.49.13h15.07a1,1,0,0,0,.84-.47.94.94,0,0,0,.13-.49v-13A.94.94,0,0,0,154.06,48.61Zm-3.77,11.48h-7.35l1.74-7a3,3,0,0,1,.49-1.09,2.27,2.27,0,0,1,.85-.7,2.62,2.62,0,0,1,1.17-.25h3.1Z"/><path class="cls-1" d="M135.77,48.14h-12a1,1,0,0,0-.49.13,1,1,0,0,0-.35.34,1,1,0,0,0-.13.48V62a1,1,0,0,0,.13.5,1,1,0,0,0,.85.5h11.91a1,1,0,0,0,1-1v-1a1,1,0,0,0-1-1h-9V57h7.77a1,1,0,0,0,.49-.13,1,1,0,0,0,.35-.35,1,1,0,0,0,.13-.49v-1a1,1,0,0,0-.13-.49,1,1,0,0,0-.35-.35,1,1,0,0,0-.49-.13h-7.77v-3h9a1,1,0,0,0,1-1v-1a1,1,0,0,0-.49-.85A1,1,0,0,0,135.77,48.14Z"/><path class="cls-1" d="M111.12,63a1.21,1.21,0,0,0,.52-.13,1.54,1.54,0,0,0,.75-.8L116,51.88V62a1,1,0,0,0,.13.5,1,1,0,0,0,.85.5h1.87a.94.94,0,0,0,.5-.14,1,1,0,0,0,.35-.36,1,1,0,0,0,.13-.5V49.14a1,1,0,0,0-.13-.5,1,1,0,0,0-.34-.36.94.94,0,0,0-.48-.13h-4.22a1.17,1.17,0,0,0-.53.13,1.51,1.51,0,0,0-.72.84L110.38,58l-3.06-8.87a1.48,1.48,0,0,0-.72-.84,1.16,1.16,0,0,0-.53-.13h-4.22a.94.94,0,0,0-.48.13,1,1,0,0,0-.34.36,1,1,0,0,0-.13.5V62a1,1,0,0,0,.13.5,1,1,0,0,0,.85.5h1.87a1,1,0,0,0,.85-.5,1,1,0,0,0,.13-.5V51.88l3.65,10.21a1.54,1.54,0,0,0,.75.8,1.21,1.21,0,0,0,.52.13Z"/><path class="cls-2" d="M295.55,40.4a1,1,0,0,0,.49-.13,1,1,0,0,0,.35-.35,1,1,0,0,0,.13-.49V26.54a1,1,0,0,0-.47-.84.91.91,0,0,0-.48-.13h-3.05a1.24,1.24,0,0,0-.53.14,2.22,2.22,0,0,0-.51.36,2.16,2.16,0,0,0-.39.48L285.2,36.89V26.52a.94.94,0,0,0-.13-.48,1,1,0,0,0-.35-.34,1,1,0,0,0-.49-.13h-1.82a1,1,0,0,0-.5.13,1,1,0,0,0-.35.35,1,1,0,0,0-.13.5V39.43a1,1,0,0,0,1,1h3.43a1.4,1.4,0,0,0,.57-.13,2.1,2.1,0,0,0,.54-.35,1.86,1.86,0,0,0,.4-.49l5.4-9.6v9.6a1,1,0,0,0,.49.84,1,1,0,0,0,.49.13ZM289,22.07a1.71,1.71,0,0,1-.87-.2,1.09,1.09,0,0,1-.47-.54.9.9,0,0,0-.28-.38.73.73,0,0,0-.44-.14h-.85a.63.63,0,0,0-.42.12.51.51,0,0,0-.15.41,3.06,3.06,0,0,0,.44,1.64A2.82,2.82,0,0,0,287.15,24a4.63,4.63,0,0,0,3.65,0A2.81,2.81,0,0,0,292,23a3.06,3.06,0,0,0,.44-1.64.5.5,0,0,0-.15-.41.62.62,0,0,0-.42-.12H291a.71.71,0,0,0-.44.14.88.88,0,0,0-.28.38,1.09,1.09,0,0,1-.47.54A1.71,1.71,0,0,1,289,22.07ZM276.71,40.4a1,1,0,0,0,.49-.13,1,1,0,0,0,.35-.35,1,1,0,0,0,.13-.49V26.52a1,1,0,0,0-.47-.84.94.94,0,0,0-.48-.13h-3.05a1.2,1.2,0,0,0-.53.14,2,2,0,0,0-.51.36,2.06,2.06,0,0,0-.39.48l-5.89,10.36V26.5a1,1,0,0,0-.13-.48,1,1,0,0,0-.35-.34,1,1,0,0,0-.49-.13h-1.82a1,1,0,0,0-.5.13,1,1,0,0,0-.35.35,1,1,0,0,0-.13.5V39.43a1,1,0,0,0,.13.49,1,1,0,0,0,.35.35,1,1,0,0,0,.5.13H267a1.4,1.4,0,0,0,.57-.13,2.1,2.1,0,0,0,.54-.35,2,2,0,0,0,.4-.49l5.4-9.62v9.62a1,1,0,0,0,.13.49,1,1,0,0,0,.35.35,1,1,0,0,0,.49.13Zm-28.82,0a1,1,0,0,0,.84-.47,1,1,0,0,0,.13-.48v-5h2.23a2.51,2.51,0,0,1,1.17.27,3.2,3.2,0,0,1,.93.74,8.05,8.05,0,0,1,.81,1.11l1.82,2.88a2.11,2.11,0,0,0,.45.5,2.41,2.41,0,0,0,.57.35,1.55,1.55,0,0,0,.57.13h2.37a.61.61,0,0,0,.41-.13.42.42,0,0,0,.13-.35,1.07,1.07,0,0,0-.18-.5l-2.59-4.11a8.82,8.82,0,0,0-.53-.73,7.55,7.55,0,0,0-.65-.74,4.64,4.64,0,0,0-.73-.61,2.27,2.27,0,0,0-.76-.34,3.45,3.45,0,0,0,1.22-.53,4,4,0,0,0,.85-.81,7.24,7.24,0,0,0,.61-.94l2.25-4.07a1,1,0,0,0,.16-.71c-.05-.18-.21-.28-.48-.28h-2.4a1.5,1.5,0,0,0-.8.24,2.07,2.07,0,0,0-.69.75L254,29.4a5.87,5.87,0,0,1-.85,1.2,2.91,2.91,0,0,1-.95.68,2.77,2.77,0,0,1-1.11.22h-2.23v-5a1,1,0,0,0-.13-.51,1,1,0,0,0-.35-.36,1,1,0,0,0-.49-.13h-2a1,1,0,0,0-.49.13,1,1,0,0,0-.49.86V39.41a1,1,0,0,0,.13.5,1,1,0,0,0,.35.36.92.92,0,0,0,.49.14ZM226,33a9.21,9.21,0,0,0,.86,4.24,5.43,5.43,0,0,0,2.57,2.47,9.86,9.86,0,0,0,4.24.8h2.52a8.38,8.38,0,0,0,1.73-.18,7.13,7.13,0,0,0,1.61-.55,5.37,5.37,0,0,0,1.35-.91,4.07,4.07,0,0,0,.92-1.28,3.91,3.91,0,0,0,.34-1.63,1.27,1.27,0,0,0-.13-.58,1,1,0,0,0-.3-.35,1.1,1.1,0,0,0-.35-.17,1.12,1.12,0,0,0-.28,0h-1.23a1.4,1.4,0,0,0-.56.1,1.37,1.37,0,0,0-.49.36,2.73,2.73,0,0,0-.43.68,2.85,2.85,0,0,1-1,1.19,2.74,2.74,0,0,1-1.57.44h-2.06a6.4,6.4,0,0,1-1.89-.23,2.42,2.42,0,0,1-1.19-.76,3.2,3.2,0,0,1-.62-1.41,10.83,10.83,0,0,1-.18-2.17,10.82,10.82,0,0,1,.18-2.17,3.2,3.2,0,0,1,.62-1.41,2.42,2.42,0,0,1,1.19-.76,6.4,6.4,0,0,1,1.89-.23h1.84a2.71,2.71,0,0,1,1.57.44,2.85,2.85,0,0,1,1,1.19,2.74,2.74,0,0,0,.43.68,1.41,1.41,0,0,0,.49.36,1.46,1.46,0,0,0,.56.1h1.23a1.12,1.12,0,0,0,.28,0,1.18,1.18,0,0,0,.35-.17,1,1,0,0,0,.3-.35A1.25,1.25,0,0,0,242,30a3.9,3.9,0,0,0-.34-1.63,4,4,0,0,0-.92-1.28,5.38,5.38,0,0,0-1.35-.91,7.15,7.15,0,0,0-1.61-.55,8.16,8.16,0,0,0-1.73-.18H233.7a9.86,9.86,0,0,0-4.24.8,5.41,5.41,0,0,0-2.57,2.47A9.21,9.21,0,0,0,226,33Zm-2.81-7.44H211.29a1,1,0,0,0-.84.47.94.94,0,0,0-.13.48V39.41a1,1,0,0,0,.13.5,1,1,0,0,0,.84.49h11.89a1,1,0,0,0,1-1v-1a1,1,0,0,0-1-1h-9V34.43H222a1,1,0,0,0,.49-.13,1,1,0,0,0,.35-.35,1,1,0,0,0,.13-.49v-1a1,1,0,0,0-.13-.49,1,1,0,0,0-.35-.35,1,1,0,0,0-.49-.13h-7.76v-3h9a1,1,0,0,0,1-1v-1a1,1,0,0,0-.49-.84A1,1,0,0,0,223.22,25.55Zm-31,4.47a5.9,5.9,0,0,0,.48,2.45,4.35,4.35,0,0,0,1.32,1.69,5.74,5.74,0,0,0,2,1,9.82,9.82,0,0,0,2.58.31h4v4a1,1,0,0,0,1,1h1.93a1,1,0,0,0,.51-.13,1,1,0,0,0,.36-.35,1,1,0,0,0,.13-.49V26.53a1,1,0,0,0-.13-.5,1,1,0,0,0-.36-.35,1,1,0,0,0-.51-.13h-1.93a1,1,0,0,0-.49.13,1,1,0,0,0-.35.35,1,1,0,0,0-.13.5v6h-4a2.24,2.24,0,0,1-2.5-2.51V26.53A1,1,0,0,0,196,26a1,1,0,0,0-.35-.35,1,1,0,0,0-.49-.13h-1.93a1,1,0,0,0-.5.13,1,1,0,0,0-.36.35.94.94,0,0,0-.14.49ZM188.18,40.4a1,1,0,0,0,.49-.13,1,1,0,0,0,.35-.35,1,1,0,0,0,.13-.49V26.52a1,1,0,0,0-.47-.84.94.94,0,0,0-.48-.13h-3.05a1.2,1.2,0,0,0-.53.14,2,2,0,0,0-.51.36,2.06,2.06,0,0,0-.39.48l-5.89,10.36V26.5a1,1,0,0,0-.13-.48,1,1,0,0,0-.35-.34,1,1,0,0,0-.49-.13H175a1,1,0,0,0-.5.13,1,1,0,0,0-.35.35,1,1,0,0,0-.13.5V39.43a1,1,0,0,0,.13.49,1,1,0,0,0,.35.35,1,1,0,0,0,.5.13h3.43a1.4,1.4,0,0,0,.57-.13,2.1,2.1,0,0,0,.54-.35,2,2,0,0,0,.4-.49l5.4-9.62v9.62a1,1,0,0,0,.13.49,1,1,0,0,0,.35.35,1,1,0,0,0,.49.13Zm-21.76-1a1,1,0,0,0,1,1h1.93a1,1,0,0,0,.51-.13,1,1,0,0,0,.36-.35,1,1,0,0,0,.13-.49V26.53a1,1,0,0,0-.49-.85,1,1,0,0,0-.51-.13h-1.93a1,1,0,0,0-.84.48,1,1,0,0,0-.13.5v4.68H159.3V26.53a1,1,0,0,0-.13-.5,1,1,0,0,0-.84-.48h-1.93a1,1,0,0,0-.5.13,1,1,0,0,0-.49.85v12.9a.92.92,0,0,0,.14.49,1,1,0,0,0,.36.35,1,1,0,0,0,.5.13h1.93a1,1,0,0,0,.84-.47,1,1,0,0,0,.13-.48V34.13h7.12Zm-15.74,1a1,1,0,0,0,.49-.13,1,1,0,0,0,.35-.35,1,1,0,0,0,.13-.49V26.52a1,1,0,0,0-.47-.84.94.94,0,0,0-.48-.13h-3.05a1.2,1.2,0,0,0-.53.14,2,2,0,0,0-.51.36,2.06,2.06,0,0,0-.39.48l-5.89,10.36V26.5a1,1,0,0,0-.13-.48,1,1,0,0,0-.35-.34,1,1,0,0,0-.49-.13h-1.82a1,1,0,0,0-.5.13,1,1,0,0,0-.35.35,1,1,0,0,0-.13.5V39.43a1,1,0,0,0,.13.49,1,1,0,0,0,.35.35,1,1,0,0,0,.5.13H141a1.4,1.4,0,0,0,.57-.13,2.11,2.11,0,0,0,.54-.35,2,2,0,0,0,.4-.49l5.4-9.62v9.62a1,1,0,0,0,.13.49,1,1,0,0,0,.35.35,1,1,0,0,0,.49.13Zm-17.86-1V26.52a1,1,0,0,0-.43-.84.8.8,0,0,0-.44-.14h-5.17a13.49,13.49,0,0,0-2.22.17,7.49,7.49,0,0,0-2,.61,4.82,4.82,0,0,0-1.61,1.23,5.06,5.06,0,0,0-1,2l-2.63,10a.69.69,0,0,0,0,.43.65.65,0,0,0,.25.31.73.73,0,0,0,.41.12h2.1a1.2,1.2,0,0,0,.53-.13,1.39,1.39,0,0,0,.44-.35,1.29,1.29,0,0,0,.26-.5l2.37-8.87a2.9,2.9,0,0,1,.56-1.11,2.67,2.67,0,0,1,.95-.72,3,3,0,0,1,1.23-.25h2.52v11a1,1,0,0,0,.13.5,1,1,0,0,0,.35.35,1,1,0,0,0,.49.13h2a1,1,0,0,0,.48-.13.94.94,0,0,0,.34-.35A1,1,0,0,0,132.82,39.43Zm-29,1a1,1,0,0,0,.84-.47,1,1,0,0,0,.13-.48v-5H107a2.51,2.51,0,0,1,1.17.27,3.2,3.2,0,0,1,.93.74,8.05,8.05,0,0,1,.81,1.11l1.82,2.88a2.11,2.11,0,0,0,.45.5,2.41,2.41,0,0,0,.57.35,1.55,1.55,0,0,0,.57.13h2.37a.61.61,0,0,0,.41-.13.42.42,0,0,0,.13-.35,1.07,1.07,0,0,0-.18-.5l-2.59-4.11a8.82,8.82,0,0,0-.53-.73,7.55,7.55,0,0,0-.65-.74,4.64,4.64,0,0,0-.73-.61,2.27,2.27,0,0,0-.76-.34,3.45,3.45,0,0,0,1.22-.53,4,4,0,0,0,.85-.81,7.25,7.25,0,0,0,.61-.94l2.25-4.07a1,1,0,0,0,.16-.71c-.05-.18-.21-.28-.48-.28H113a1.5,1.5,0,0,0-.8.24,2.07,2.07,0,0,0-.69.75l-1.61,2.86a5.87,5.87,0,0,1-.85,1.2,2.91,2.91,0,0,1-.95.68,2.77,2.77,0,0,1-1.11.22h-2.23v-5a1,1,0,0,0-.13-.51,1,1,0,0,0-.35-.36,1,1,0,0,0-.49-.13h-2a1,1,0,0,0-.49.13,1,1,0,0,0-.49.86V39.41a1,1,0,0,0,.13.5,1,1,0,0,0,.35.36.92.92,0,0,0,.49.14Z"/><path class="cls-2" d="M206.58,19.64a1,1,0,0,0,.49-.13,1,1,0,0,0,.35-.35,1,1,0,0,0,.13-.49V5.75a1,1,0,0,0-.13-.49,1,1,0,0,0-.34-.35.91.91,0,0,0-.48-.13h-3.06a1.25,1.25,0,0,0-.53.14,2.24,2.24,0,0,0-.51.36,2.15,2.15,0,0,0-.39.48l-5.9,10.36V5.73a.94.94,0,0,0-.13-.48,1,1,0,0,0-.35-.34,1,1,0,0,0-.49-.13h-1.83a1,1,0,0,0-.5.13,1,1,0,0,0-.35.35,1,1,0,0,0-.13.5V18.66a1,1,0,0,0,.13.49,1,1,0,0,0,.35.35,1,1,0,0,0,.5.13h3.44a1.41,1.41,0,0,0,.57-.13,2.12,2.12,0,0,0,.54-.35,1.87,1.87,0,0,0,.4-.49L203.78,9v9.62a1,1,0,0,0,.49.84,1,1,0,0,0,.49.13ZM200,1.27a1.71,1.71,0,0,1-.87-.2,1.09,1.09,0,0,1-.47-.55.9.9,0,0,0-.28-.39.73.73,0,0,0-.44-.15h-.85a.63.63,0,0,0-.42.12.51.51,0,0,0-.15.41A3.07,3.07,0,0,0,197,2.18a2.82,2.82,0,0,0,1.22,1.06,4.26,4.26,0,0,0,1.83.38,4.28,4.28,0,0,0,1.83-.38A2.81,2.81,0,0,0,203,2.18a3.07,3.07,0,0,0,.44-1.65.5.5,0,0,0-.15-.41.63.63,0,0,0-.42-.12h-.85a.71.71,0,0,0-.44.15.88.88,0,0,0-.28.39,1.09,1.09,0,0,1-.47.55A1.71,1.71,0,0,1,200,1.27ZM185.52,18.68a.94.94,0,0,0,.49.82,1,1,0,0,0,.49.13h2a1,1,0,0,0,.51-.13,1,1,0,0,0,.36-.35.92.92,0,0,0,.13-.49V5.74a.94.94,0,0,0-.13-.5,1,1,0,0,0-.36-.35,1,1,0,0,0-.51-.13h-2a1,1,0,0,0-.84.48,1,1,0,0,0-.13.5Zm-12-8.85V5.74a1,1,0,0,0-.13-.5,1,1,0,0,0-.84-.48h-2a1,1,0,0,0-.5.13.94.94,0,0,0-.35.35,1,1,0,0,0-.13.5v12.9a1.07,1.07,0,0,0,.12.5,1,1,0,0,0,.33.36.89.89,0,0,0,.48.14h7.24a7.41,7.41,0,0,0,2.19-.31,5.53,5.53,0,0,0,1.8-.93A4.37,4.37,0,0,0,183,16.85a4.89,4.89,0,0,0,.45-2.12,4.88,4.88,0,0,0-.45-2.12,4.37,4.37,0,0,0-1.21-1.54,5.4,5.4,0,0,0-1.8-.93,7.41,7.41,0,0,0-2.19-.31Zm4.27,2.93a1.62,1.62,0,0,1,1.32.52,2.21,2.21,0,0,1,.42,1.45,2.21,2.21,0,0,1-.42,1.45,1.62,1.62,0,0,1-1.32.52h-4.27V12.76Zm-15.86.51a1.78,1.78,0,0,1,.92.23,1.39,1.39,0,0,1,.55.62,2.46,2.46,0,0,1,0,1.87,1.39,1.39,0,0,1-.55.62,1.78,1.78,0,0,1-.92.23H156V13.27Zm-.38-5.71a1.42,1.42,0,0,1,1,.39,1.52,1.52,0,0,1,.4,1.11,1.5,1.5,0,0,1-.4,1.11,1.42,1.42,0,0,1-1,.39H156v-3Zm-9.45,11.1a1,1,0,0,0,.13.49,1,1,0,0,0,.35.35,1,1,0,0,0,.5.13H162a7.75,7.75,0,0,0,1.69-.18,6.2,6.2,0,0,0,1.5-.54,4.65,4.65,0,0,0,1.21-.89,3.88,3.88,0,0,0,.8-1.25,4.24,4.24,0,0,0,.29-1.6,4.38,4.38,0,0,0-.21-1.35,3.5,3.5,0,0,0-.65-1.18,3.73,3.73,0,0,0-1.14-.91,4.51,4.51,0,0,0,.82-.85,2.91,2.91,0,0,0,.45-.9,3.5,3.5,0,0,0,.13-1,4.19,4.19,0,0,0-.3-1.63,3.6,3.6,0,0,0-.83-1.2,4.54,4.54,0,0,0-1.21-.81,6.3,6.3,0,0,0-1.46-.46,8.43,8.43,0,0,0-1.58-.15h-8.43a1,1,0,0,0-.5.13,1,1,0,0,0-.48.84ZM136,4.76a1,1,0,0,0-.48.13,1,1,0,0,0-.34.35,1,1,0,0,0-.13.5V18.66a1,1,0,0,0,.13.49,1,1,0,0,0,.35.35,1,1,0,0,0,.49.13h2a1,1,0,0,0,1-1V16.32h5a8.3,8.3,0,0,0,3.38-.61,4.45,4.45,0,0,0,2.14-1.9,6.5,6.5,0,0,0,.75-3.28,6.52,6.52,0,0,0-.75-3.28,4.49,4.49,0,0,0-2.14-1.9,8.36,8.36,0,0,0-3.38-.61Zm6.73,2.93a8.39,8.39,0,0,1,1.42.1,3,3,0,0,1,1.12.41,2,2,0,0,1,.74.87,3.6,3.6,0,0,1,.27,1.47A3.61,3.61,0,0,1,146,12a2,2,0,0,1-.74.87,3,3,0,0,1-1.12.41,8,8,0,0,1-1.42.11H139V7.68ZM132.18,4.76h-12a1,1,0,0,0-.49.13,1,1,0,0,0-.35.34.94.94,0,0,0-.13.48V18.64a1,1,0,0,0,.13.5,1,1,0,0,0,.85.5h11.91a1,1,0,0,0,1-1v-1a1,1,0,0,0-1-1h-9V13.65h7.77a1,1,0,0,0,.49-.13,1,1,0,0,0,.35-.35,1,1,0,0,0,.13-.49v-1a1,1,0,0,0-.13-.49,1,1,0,0,0-.35-.35,1,1,0,0,0-.49-.13h-7.77v-3h9a1,1,0,0,0,.49-.13,1,1,0,0,0,.35-.35,1,1,0,0,0,.13-.5v-1a1,1,0,0,0-.49-.85A1,1,0,0,0,132.18,4.76Zm-16.9,14.88a1,1,0,0,0,.86-.49,1,1,0,0,0,.13-.49V5.73a1,1,0,0,0-.49-.85,1,1,0,0,0-.49-.13H101.84a1,1,0,0,0-.48.13,1,1,0,0,0-.34.35,1,1,0,0,0-.13.5V18.66a1,1,0,0,0,.13.49,1,1,0,0,0,.35.35,1,1,0,0,0,.5.13h2a1,1,0,0,0,.49-.13,1,1,0,0,0,.35-.35,1,1,0,0,0,.13-.49v-11h7.58v11a1,1,0,0,0,.13.49,1,1,0,0,0,.35.35,1,1,0,0,0,.49.13Z"/><path class="cls-3" d="M42.72,57.45A51.76,51.76,0,0,0,1,36.32h0a44.19,44.19,0,0,0,0,17.82H1A34,34,0,0,1,33.8,79.3a53.51,53.51,0,0,1,8.92-21.85"/><path class="cls-4" d="M34.87,88.16h0A51.76,51.76,0,0,1,56,46.36a53.52,53.52,0,0,0,22,8.91,34,34,0,0,0-25.3,32.88v0a44.2,44.2,0,0,1-17.82,0"/><path class="cls-5" d="M44.94,33A51.76,51.76,0,0,0,86.7,54.17h0a44.19,44.19,0,0,0,0-17.82H86.7A34,34,0,0,1,53.86,11.18,53.51,53.51,0,0,1,44.94,33"/><path class="cls-6" d="M52.79,2.33h0a51.76,51.76,0,0,1-21.18,41.8A53.36,53.36,0,0,0,9.66,35.22,34,34,0,0,0,35,2.34v0a44.2,44.2,0,0,1,17.82,0"/></g></g></svg>